<svg xmlns="http://www.w3.org/2000/svg" width="24" height="24" viewBox="0 0 24 24" fill="none">
  <circle cx="12" cy="12" r="3" stroke="#D5E3EA" stroke-width="1.7"/>
  <path d="M19.1 13.9a7.9 7.9 0 0 0 0-3.8l2-1.55-2-3.45-2.5 1a8.1 8.1 0 0 0-3.3-1.9L13 1.5H9l-.3 2.7a8.1 8.1 0 0 0-3.3 1.9l-2.5-1-2 3.45 2 1.55a7.9 7.9 0 0 0 0 3.8l-2 1.55 2 3.45 2.5-1a8.1 8.1 0 0 0 3.3 1.9l.3 2.7h4l.3-2.7a8.1 8.1 0 0 0 3.3-1.9l2.5 1 2-3.45-2-1.55Z" stroke="#D5E3EA" stroke-width="1.35" stroke-linecap="round" stroke-linejoin="round"/>
</svg>
